<svg aria-hidden="true" style="position: absolute; width: 0; height: 0; overflow: hidden;" version="1.1" xmlns="http://www.w3.org/2000/svg" xmlns:xlink="http://www.w3.org/1999/xlink">
<defs>
<symbol id="icon-alert" viewBox="0 0 32 32">
<title>alert</title>
<path d="M15.5 3.5c-7.18 0-13 5.82-13 13s5.82 13 13 13 13-5.82 13-13-5.82-13-13-13zM15.5 23.875c-0.829 0-1.5-0.672-1.5-1.5s0.671-1.5 1.5-1.5c0.828 0 1.5 0.672 1.5 1.5s-0.672 1.5-1.5 1.5zM17 17.375c0 0.828-0.672 1.5-1.5 1.5-0.829 0-1.5-0.672-1.5-1.5v-7c0-0.829 0.671-1.5 1.5-1.5 0.828 0 1.5 0.671 1.5 1.5v7z"></path>
</symbol>
<symbol id="icon-dots" viewBox="0 0 32 32">
<title>dots</title>
<path d="M19.987 4.048c0 2.236-1.813 4.048-4.048 4.048s-4.048-1.813-4.048-4.048c0-2.236 1.813-4.048 4.048-4.048s4.048 1.813 4.048 4.048z"></path>
<path d="M19.987 15.935c0 2.236-1.813 4.048-4.048 4.048s-4.048-1.813-4.048-4.048c0-2.236 1.813-4.048 4.048-4.048s4.048 1.813 4.048 4.048z"></path>
<path d="M19.987 27.825c0 2.236-1.813 4.048-4.048 4.048s-4.048-1.813-4.048-4.048c0-2.236 1.813-4.048 4.048-4.048s4.048 1.813 4.048 4.048z"></path>
</symbol>
<symbol id="icon-book" viewBox="0 0 32 32">
<title>book</title>
<path d="M15.448 24.066l-0.27-0.171c-1.618-1.11-3.532-1.921-5.597-2.303l-0.091-0.014c-0.57-0.093-1.226-0.146-1.895-0.146s-1.326 0.053-1.966 0.156l0.070-0.009c-1.103 0.154-2.163 0.397-3.244 0.601-0.055 0-0.116 0-0.188 0v-17.004c0.646-0.143 1.302-0.298 1.964-0.425 1.080-0.214 2.321-0.337 3.59-0.337 0.028 0 0.055 0 0.083 0h-0.004c1.941 0.042 3.758 0.533 5.363 1.373l-0.067-0.032c0.712 0.348 1.39 0.772 2.069 1.181 0.102 0.074 0.17 0.188 0.182 0.318l0 0.002q0 8.337 0 16.668c0 0.033 0 0.066 0 0.143z"></path>
<path d="M16.734 24.177v-0.419q0-8.143 0-16.287c-0.003-0.020-0.004-0.042-0.004-0.066 0-0.209 0.116-0.391 0.288-0.485l0.003-0.001c1.697-1.131 3.703-1.951 5.86-2.326l0.093-0.013c0.513-0.071 1.105-0.112 1.707-0.112 0.86 0 1.7 0.083 2.514 0.241l-0.083-0.013c0.772 0.132 1.534 0.331 2.301 0.491 0.188 0.039 0.248 0.127 0.248 0.32q0 8.276 0 16.524c0 0.066 0 0.138 0 0.281-4.596-1.457-8.899-0.966-12.927 1.865z"></path>
<path d="M16.215 26.091c1.889-1.43 4.181-2.429 6.676-2.809l0.083-0.010c0.556-0.074 1.199-0.116 1.851-0.116 0.831 0 1.646 0.068 2.439 0.199l-0.086-0.012c1.186 0.177 2.356 0.436 3.531 0.657h0.199v-17.258l1.274 0.177v18.554l-0.552-0.121c-2.004-0.514-4.305-0.809-6.675-0.809-0.159 0-0.318 0.001-0.477 0.004l0.024-0c-3.055 0.109-5.829 1.223-8.024 3.020l0.024-0.019-0.226 0.188s-0.039 0 0-0.050c-0.883-0.552-1.732-1.153-2.648-1.655-1.779-0.958-3.893-1.521-6.139-1.521-0.169 0-0.338 0.003-0.506 0.010l0.024-0.001c-2.398 0.075-4.683 0.385-6.886 0.907l0.232-0.047-0.353 0.105v-18.637l0.988-0.149v17.341c0.486-0.099 0.932-0.199 1.379-0.287 1.39-0.28 3.029-0.478 4.7-0.549l0.067-0.002c0.162-0.007 0.351-0.011 0.542-0.011 2.531 0 4.901 0.691 6.931 1.894l-0.063-0.035c0.574 0.331 1.114 0.695 1.672 1.043z"></path>
</symbol>
<symbol id="icon-at" viewBox="0 0 20 20">
<title>at</title>
<path d="M13.6 13.47c-0.91 0.953-2.191 1.545-3.61 1.545-2.756 0-4.99-2.234-4.99-4.99 0-0.009 0-0.018 0-0.026v0.001c0-2.761 2.239-5 5-5 1.131 0 2.175 0.376 3.013 1.009l-0.013-0.009v-1h2v6.5c0 0.828 0.672 1.5 1.5 1.5s1.5-0.672 1.5-1.5v0-1.5c-0.003-4.416-3.584-7.994-8-7.994-4.418 0-8 3.582-8 8s3.582 8 8 8c1.305 0 2.537-0.312 3.625-0.867l-0.045 0.021 0.9 1.79c-1.305 0.668-2.847 1.060-4.48 1.060-5.523 0-10-4.477-10-10s4.477-10 10-10c5.519 0 9.994 4.472 10 9.99v0.001h-0.010v1.5c0 0.003 0 0.007 0 0.010 0 1.933-1.567 3.5-3.5 3.5-1.202 0-2.262-0.606-2.892-1.528l-0.008-0.012zM10 13c1.657 0 3-1.343 3-3s-1.343-3-3-3v0c-1.657 0-3 1.343-3 3s1.343 3 3 3v0z"></path>
</symbol>
<symbol id="icon-caret-down" viewBox="0 0 32 32">
<title>caret-down</title>
<path d="M31.441 8.35c-0.398-0.447-0.975-0.727-1.618-0.727-0.549 0-1.050 0.204-1.432 0.541l0.002-0.002-12.399 10.961-12.399-10.961c-0.366-0.293-0.836-0.47-1.347-0.47-1.195 0-2.164 0.969-2.164 2.164 0 0.603 0.247 1.149 0.645 1.542l0 0 14.014 12.348 0.137 0.086 0.193 0.096 0.071 0.030 0.132 0.051h0.071l0.137 0.036h0.985l0.137-0.036h0.071l0.132-0.051 0.071-0.030 0.127-0.061 0.066-0.036 0.137-0.086 0.056-0.041 0.147-0.117 13.811-12.19c0.456-0.399 0.742-0.981 0.742-1.631 0-0.543-0.2-1.039-0.531-1.419l0.002 0.003z"></path>
</symbol>
<symbol id="icon-cog" viewBox="0 0 32 32">
<title>cog</title>
<path d="M0 18.224v-4.455l1.050-0.307c0.864-0.249 1.74-0.487 2.587-0.754 0.133-0.056 0.239-0.156 0.3-0.281l0.002-0.003c0.342-0.795 0.661-1.601 1.009-2.39 0.042-0.069 0.066-0.152 0.066-0.241s-0.025-0.172-0.068-0.243l0.001 0.002c-0.58-0.998-1.119-2.001-1.676-3.005l-0.133-0.244 3.155-3.173 0.232 0.116c1.003 0.58 2.007 1.108 3.005 1.676 0.073 0.045 0.161 0.071 0.255 0.071s0.182-0.026 0.257-0.072l-0.002 0.001c0.783-0.348 1.572-0.673 2.367-0.986 0.156-0.044 0.275-0.167 0.313-0.322l0.001-0.003c0.313-1.102 0.621-2.21 0.957-3.318 0-0.099 0.064-0.191 0.093-0.296h4.455l0.435 1.496c0.209 0.713 0.4 1.433 0.626 2.14 0.056 0.133 0.156 0.239 0.281 0.3l0.003 0.002c0.795 0.342 1.601 0.661 2.39 1.009 0.069 0.042 0.152 0.066 0.241 0.066s0.172-0.025 0.243-0.068l-0.002 0.001c0.998-0.58 2.001-1.119 3.005-1.676l0.244-0.133 3.173 3.173c0 0.052-0.070 0.145-0.116 0.232-0.58 1.003-1.108 2.007-1.676 3.005-0.045 0.073-0.071 0.161-0.071 0.255s0.026 0.182 0.072 0.257l-0.001-0.002c0.348 0.783 0.673 1.572 0.986 2.367 0.044 0.156 0.167 0.275 0.322 0.313l0.003 0.001c1.125 0.313 2.245 0.644 3.364 0.969l0.267 0.081v4.46l-1.496 0.435c-0.702 0.203-1.404 0.412-2.111 0.58-0.169 0.038-0.301 0.165-0.347 0.327l-0.001 0.003c-0.307 0.789-0.626 1.572-0.974 2.32-0.048 0.077-0.076 0.17-0.076 0.27s0.028 0.193 0.077 0.272l-0.001-0.002c0.58 0.986 1.108 1.984 1.659 2.976l0.133 0.244-3.173 3.173-0.232-0.116c-1.003-0.58-2.007-1.108-3.005-1.676-0.077-0.048-0.17-0.076-0.27-0.076s-0.193 0.028-0.272 0.077l0.002-0.001c-0.771 0.342-1.554 0.661-2.32 0.969-0.156 0.044-0.275 0.167-0.313 0.322l-0.001 0.003c-0.313 1.125-0.644 2.245-0.969 3.364 0 0.087-0.052 0.174-0.081 0.267h-4.472c-0.099-0.342-0.209-0.696-0.307-1.050-0.249-0.853-0.499-1.705-0.731-2.558-0.038-0.169-0.165-0.301-0.327-0.347l-0.003-0.001c-0.789-0.307-1.572-0.626-2.32-0.969-0.077-0.048-0.17-0.076-0.27-0.076s-0.193 0.028-0.272 0.077l0.002-0.001c-0.986 0.58-1.984 1.108-2.976 1.659l-0.244 0.133-3.19-3.144c0-0.052 0.064-0.139 0.116-0.232 0.58-1.003 1.108-2.007 1.676-3.005 0.048-0.077 0.076-0.17 0.076-0.27s-0.028-0.193-0.077-0.272l0.001 0.002c-0.342-0.771-0.661-1.554-0.969-2.32-0.044-0.156-0.167-0.275-0.322-0.313l-0.003-0.001c-1.114-0.307-2.221-0.638-3.335-0.957zM8.555 16.003c0 4.113 3.334 7.448 7.448 7.448s7.448-3.334 7.448-7.448c0-4.111-3.331-7.444-7.441-7.448h-0c-0.002 0-0.004 0-0.006 0-4.113 0-7.448 3.334-7.448 7.448v0z"></path>
</symbol>
<symbol id="icon-phone" viewBox="0 0 18 32">
<title>phone</title>
<path d="M0 7.436c-0.003-0.077-0.004-0.168-0.004-0.259 0-2.221 0.874-4.238 2.298-5.725l-0.003 0.003c0.432-0.446 0.905-0.846 1.414-1.198l0.031-0.020c0.201-0.14 0.451-0.224 0.721-0.224 0.569 0 1.050 0.373 1.213 0.887l0.002 0.009q1.327 2.882 2.627 5.827c0.102 0.233 0.161 0.505 0.161 0.79 0 0.629-0.288 1.191-0.739 1.561l-0.004 0.003c-0.478 0.292-0.891 0.592-1.278 0.921l0.014-0.012c-0.516 0.487-0.838 1.175-0.838 1.939 0 0.322 0.057 0.63 0.162 0.916l-0.006-0.018c0.127 0.451 0.275 0.837 0.455 1.206l-0.018-0.042 3.336 7.136c0.168 0.372 0.356 0.691 0.574 0.988l-0.010-0.015c0.267 0.495 0.781 0.825 1.373 0.825 0.322 0 0.621-0.098 0.869-0.265l-0.005 0.003c0.464-0.264 0.909-0.591 1.345-0.909 0.202-0.138 0.452-0.22 0.721-0.22 0.567 0 1.049 0.366 1.222 0.874l0.003 0.009q1.318 2.9 2.609 5.818c0.109 0.231 0.172 0.502 0.172 0.787 0 0.582-0.264 1.102-0.679 1.447l-0.003 0.002c-0.809 0.643-1.776 1.126-2.831 1.381l-0.050 0.010c-0.281 0.055-0.605 0.087-0.936 0.087-1.246 0-2.388-0.449-3.272-1.193l0.008 0.006c-1.029-0.848-1.891-1.853-2.562-2.984l-0.029-0.052c-1.681-2.649-3.3-5.725-4.672-8.933l-0.164-0.431c-0.953-2.043-1.882-4.52-2.63-7.075l-0.098-0.389c-0.304-1.037-0.486-2.231-0.5-3.465l-0-0.008z"></path>
</symbol>
<symbol id="icon-pin" viewBox="0 0 25 32">
<title>pin</title>
<path d="M12.423 32c-0.564-0.468-1.116-0.924-1.668-1.392-2.727-2.34-5.101-4.969-7.112-7.87l-0.089-0.136c-1.355-1.915-2.426-4.147-3.086-6.548l-0.035-0.149c-0.313-1.033-0.493-2.22-0.493-3.449 0-3.391 1.372-6.461 3.59-8.686l-0 0c1.973-2.133 4.71-3.534 7.774-3.767l0.040-0.002c0.358-0.037 0.774-0.058 1.195-0.058 5.751 0 10.587 3.915 11.989 9.226l0.019 0.086c0.252 0.967 0.396 2.078 0.396 3.223 0 1.635-0.295 3.201-0.834 4.647l0.030-0.092c-0.98 2.758-2.323 5.145-4 7.253l0.039-0.051c-2.209 2.859-4.666 5.355-7.39 7.53l-0.087 0.067zM12.423 7.106c-2.938 0.007-5.317 2.39-5.317 5.329 0 2.943 2.386 5.329 5.329 5.329s5.329-2.386 5.329-5.329c0-0.008-0-0.017-0-0.025v0.001c-0.014-2.933-2.394-5.305-5.329-5.305-0 0-0 0-0 0v0z"></path>
</symbol>
<symbol id="icon-exam" viewBox="0 0 32 32">
<title>exam</title>
<path d="M7.431 1.454c0-0.228 0-0.418 0-0.613-0.005-0.031-0.007-0.068-0.007-0.104 0-0.41 0.333-0.743 0.743-0.743 0.035 0 0.070 0.002 0.103 0.007l-0.004-0h8.494c0.026-0.003 0.056-0.005 0.087-0.005 0.407 0 0.738 0.33 0.738 0.738 0 0.032-0.002 0.064-0.006 0.096l0-0.004c0 0.195 0 0.385 0 0.624h4.881c0.64 0 0.906 0.255 0.906 0.889q0 14.346 0 28.686c0 0.618-0.266 0.884-0.879 0.884h-19.97c-0.635 0-0.889-0.26-0.889-0.9q0-14.329 0-28.659c0-0.64 0.255-0.895 0.889-0.895h4.914zM3.092 30.443h18.82v-27.525h-4.339c0 0.222 0 0.434 0 0.645 0.001 0.014 0.001 0.030 0.001 0.046 0 0.404-0.328 0.732-0.732 0.732-0.021 0-0.043-0.001-0.064-0.003l0.003 0h-8.553c-0.021 0.002-0.045 0.003-0.069 0.003-0.404 0-0.732-0.328-0.732-0.732 0-0.026 0.001-0.052 0.004-0.077l-0 0.003c0-0.206 0-0.418 0-0.618h-4.339zM8.895 2.88h7.214v-1.416h-7.214z"></path>
<path d="M30.633 16.591q0 5.755 0 11.509c-0.009 0.237-0.068 0.457-0.167 0.655l0.004-0.009c-0.418 0.879-0.868 1.746-1.296 2.62-0.099 0.305-0.381 0.521-0.713 0.521s-0.614-0.217-0.712-0.516l-0.002-0.005c-0.439-0.889-0.895-1.774-1.329-2.668-0.078-0.158-0.126-0.344-0.13-0.541l-0-0.001q0-11.509 0-23.024c0-1.198 0.971-2.17 2.169-2.17s2.169 0.971 2.169 2.17v0q0.011 5.717 0.005 11.46zM28.464 29.559c0.222-0.439 0.423-0.824 0.602-1.22 0.069-0.145 0.11-0.314 0.114-0.492l0-0.001q0-9.41 0-18.82v-0.304h-1.432c0 0.049 0 0.081 0 0.108q0 9.557 0 19.108c-0 0.007-0.001 0.016-0.001 0.025 0 0.081 0.016 0.158 0.045 0.229l-0.001-0.004c0.206 0.45 0.412 0.89 0.667 1.372zM29.18 7.241c0-0.754 0-1.486 0-2.218-0.012-0.38-0.323-0.683-0.705-0.683-0.002 0-0.004 0-0.006 0h0c-0.009-0-0.020-0.001-0.031-0.001-0.357 0-0.651 0.269-0.69 0.616l-0 0.003c0 0.748 0 1.502 0 2.267z"></path>
<path d="M14.644 8.678h-3.574c-0.011 0.001-0.024 0.001-0.036 0.001-0.398 0-0.721-0.323-0.721-0.721 0-0.346 0.244-0.635 0.569-0.705l0.005-0.001c0.043-0.005 0.093-0.008 0.144-0.008s0.101 0.003 0.15 0.009l-0.006-0.001h7.018c0.029-0.004 0.063-0.006 0.098-0.006 0.403 0 0.731 0.321 0.743 0.721l0 0.001c0 0.445-0.331 0.732-0.857 0.732z"></path>
<path d="M14.644 13.055c-1.188 0-2.381 0-3.569 0-0.013 0.001-0.029 0.001-0.044 0.001-0.398 0-0.721-0.323-0.721-0.721 0-0.104 0.022-0.204 0.062-0.293l-0.002 0.005c0.104-0.257 0.351-0.434 0.64-0.434 0.008 0 0.015 0 0.023 0l-0.001-0h7.273c0.398 0 0.721 0.323 0.721 0.721s-0.323 0.721-0.721 0.721v0c-1.22 0.005-2.43 0-3.661 0z"></path>
<path d="M14.644 17.405h-3.574c-0.011 0.001-0.024 0.001-0.036 0.001-0.398 0-0.721-0.323-0.721-0.721 0-0.346 0.244-0.635 0.569-0.705l0.005-0.001c0.043-0.005 0.093-0.008 0.144-0.008s0.101 0.003 0.15 0.009l-0.006-0.001h7.018c0.029-0.004 0.063-0.006 0.098-0.006 0.403 0 0.731 0.321 0.743 0.721l0 0.001c0 0.445-0.331 0.732-0.857 0.732z"></path>
<path d="M14.644 21.755h-3.444c-0.542 0-0.868-0.277-0.868-0.716s0.331-0.732 0.857-0.732h7.051c0.018-0.002 0.039-0.002 0.060-0.002 0.376 0 0.686 0.281 0.732 0.644l0 0.004c0.003 0.023 0.004 0.050 0.004 0.077 0 0.337-0.23 0.621-0.541 0.703l-0.005 0.001c-0.047 0.006-0.102 0.009-0.157 0.009s-0.11-0.003-0.164-0.010l0.006 0.001z"></path>
<path d="M14.644 26.11h-3.574c-0.011 0.001-0.024 0.001-0.036 0.001-0.398 0-0.721-0.323-0.721-0.721 0-0.346 0.244-0.635 0.569-0.705l0.005-0.001c0.043-0.005 0.093-0.008 0.144-0.008s0.101 0.003 0.15 0.009l-0.006-0.001h7.018c0.029-0.004 0.063-0.006 0.098-0.006 0.403 0 0.731 0.321 0.743 0.721l0 0.001c0 0.445-0.331 0.732-0.857 0.732z"></path>
<path d="M7.414 8.678c-0.244 0-0.483 0-0.727 0-0.398 0-0.721-0.323-0.721-0.721s0.323-0.721 0.721-0.721v0q0.727 0 1.448 0c0.398 0 0.721 0.323 0.721 0.721s-0.323 0.721-0.721 0.721v0c-0.239 0.033-0.477 0-0.721 0z"></path>
<path d="M7.447 11.607c0.244 0 0.483 0 0.727 0 0.398 0 0.721 0.323 0.721 0.721s-0.323 0.721-0.721 0.721v0c-0.504 0-1.003 0-1.508 0-0.388-0.009-0.7-0.326-0.7-0.716 0-0 0-0 0-0v0c0-0.002-0-0.004-0-0.005 0-0.398 0.323-0.721 0.721-0.721 0.002 0 0.004 0 0.006 0h-0c0.25-0.011 0.504 0 0.754 0z"></path>
<path d="M7.441 15.957c0.244 0 0.483 0 0.727 0 0.398 0 0.721 0.323 0.721 0.721s-0.323 0.721-0.721 0.721v0q-0.754 0-1.508 0c-0.398 0-0.721-0.323-0.721-0.721s0.323-0.721 0.721-0.721v0c0.277-0.011 0.532 0 0.781 0z"></path>
<path d="M7.414 21.755c-0.233 0-0.466 0-0.694 0-0.4 0-0.724-0.324-0.724-0.724s0.324-0.724 0.724-0.724v0q0.727 0 1.448 0c0.398 0 0.721 0.323 0.721 0.721s-0.323 0.721-0.721 0.721v0c-0.255 0.016-0.504 0.005-0.754 0.005z"></path>
<path d="M7.42 26.104c-0.244 0-0.483 0-0.727 0-0.398 0-0.721-0.323-0.721-0.721s0.323-0.721 0.721-0.721v0c0.494 0 0.987 0 1.481 0 0.398 0 0.721 0.323 0.721 0.721s-0.323 0.721-0.721 0.721v0c-0.25 0.011-0.504 0-0.754 0z"></path>
</symbol>
<symbol id="icon-mag-glass" viewBox="0 0 32 32">
<title>mag-glass</title>
<path d="M31.467 28.060l-4.568-4.594c1.73-2.394 2.767-5.389 2.767-8.626 0-8.188-6.638-14.826-14.826-14.826s-14.826 6.638-14.826 14.826c0 8.188 6.638 14.826 14.826 14.826 3.237 0 6.231-1.037 8.669-2.797l-0.044 0.030 4.594 4.594c0.328 0.329 0.781 0.532 1.282 0.532s0.954-0.203 1.282-0.532l0.844-0.844c0.337-0.329 0.546-0.787 0.546-1.295s-0.209-0.966-0.545-1.295l-0-0zM7.057 22.596c-1.988-1.988-3.217-4.735-3.217-7.768 0-6.068 4.919-10.987 10.987-10.987s10.987 4.919 10.987 10.987c0 3.034-1.23 5.78-3.217 7.768l0-0c-1.988 1.988-4.735 3.218-7.769 3.218s-5.781-1.23-7.769-3.218l-0-0z"></path>
</symbol>
<symbol id="icon-mortarboard" viewBox="0 0 32 32">
<title>mortarboard</title>
<path d="M26.93 25.716c0.121-1.103 0.243-2.207 0.359-3.272 0.044-0.392 0.099-0.778 0.127-1.17-0.001-0.106-0.040-0.202-0.105-0.276l0 0c-0.242-0.256-0.391-0.603-0.391-0.984 0-0.47 0.226-0.887 0.575-1.148l0.004-0.003c0.087-0.066 0.148-0.162 0.165-0.273l0-0.002c0-1.721 0-3.443 0-5.164 0.002-0.017 0.002-0.038 0.002-0.058s-0.001-0.041-0.003-0.061l0 0.003-0.364 0.11c-3.023 0.999-6.058 2.030-9.092 2.996-0.632 0.218-1.361 0.345-2.119 0.345s-1.486-0.126-2.166-0.358l0.047 0.014q-6.488-2.152-12.977-4.342c-0.29-0.096-0.542-0.223-0.771-0.382l0.010 0.007c-0.138-0.064-0.232-0.202-0.232-0.361s0.094-0.297 0.23-0.36l0.002-0.001c0.174-0.121 0.376-0.223 0.59-0.293l0.016-0.005c4.414-1.44 8.828-2.886 13.241-4.292 0.625-0.21 1.345-0.331 2.094-0.331s1.468 0.121 2.142 0.345l-0.048-0.014c4.337 1.385 8.668 2.814 12.993 4.226 0.255 0.080 0.476 0.183 0.68 0.311l-0.012-0.007c0.408 0.259 0.408 0.596 0 0.855-0.176 0.112-0.379 0.21-0.593 0.281l-0.019 0.006q-1.004 0.342-2.014 0.662c-0.147 0.025-0.258 0.152-0.258 0.305 0 0.017 0.001 0.034 0.004 0.050l-0-0.002q0 2.687 0 5.368c-0 0.005-0 0.011-0 0.017 0 0.154 0.078 0.289 0.197 0.368l0.002 0.001c0.355 0.265 0.582 0.684 0.582 1.157 0 0.378-0.146 0.723-0.384 0.979l0.001-0.001c-0.063 0.089-0.101 0.199-0.101 0.318 0 0.016 0.001 0.032 0.002 0.048l-0-0.002c0.138 1.308 0.287 2.621 0.43 3.928 0 0.132 0 0.27 0.039 0.43z"></path>
<path d="M25.479 15.548c0 1.103 0 2.207 0 3.31q0 0.502 0 1.004c0.001 0.018 0.001 0.039 0.001 0.060 0 0.611-0.281 1.157-0.72 1.515l-0.004 0.003c-1.362 1.131-3.008 1.97-4.814 2.395l-0.080 0.016c-1.128 0.316-2.424 0.497-3.763 0.497-2.578 0-4.999-0.673-7.096-1.853l0.073 0.038c-0.651-0.394-1.209-0.789-1.738-1.219l0.027 0.022c-0.38-0.29-0.623-0.744-0.623-1.254 0-0.001 0-0.003 0-0.004v0c0-1.495 0-2.985 0-4.53l0.348 0.105c2.124 0.706 4.237 1.429 6.367 2.119 0.791 0.271 1.703 0.427 2.651 0.427s1.86-0.156 2.71-0.445l-0.059 0.017c2.13-0.69 4.248-1.412 6.367-2.119z"></path>
</symbol>
<symbol id="icon-out" viewBox="0 0 32 32">
<title>out</title>
<path d="M2.713 16.070q0 5.339 0 10.678c-0.006 0.046-0.009 0.099-0.009 0.153 0 0.748 0.606 1.355 1.355 1.355 0.054 0 0.107-0.003 0.16-0.009l-0.006 0.001h5.195c0.023-0.001 0.050-0.002 0.077-0.002 0.751 0 1.359 0.608 1.359 1.359s-0.608 1.359-1.359 1.359c-0.027 0-0.054-0.001-0.081-0.002l0.004 0h-5.322c-0.012 0-0.026 0-0.040 0-2.235 0-4.046-1.811-4.046-4.046 0-0.015 0-0.031 0-0.046l-0 0.002q0-10.823 0-21.65c-0-0.020-0.001-0.043-0.001-0.066 0-2.242 1.817-4.059 4.059-4.059 0.003 0 0.007 0 0.010 0h-0c1.784 0 3.568 0 5.352 0 0.023-0.001 0.050-0.002 0.077-0.002 0.703 0 1.282 0.534 1.352 1.219l0 0.006c0.004 0.041 0.007 0.088 0.007 0.136 0 0.616-0.414 1.136-0.979 1.295l-0.009 0.002c-0.14 0.034-0.3 0.054-0.465 0.054-0.022 0-0.043-0-0.065-0.001l0.003 0h-5.168c-0.030-0.002-0.064-0.004-0.099-0.004-0.659 0-1.208 0.469-1.332 1.091l-0.001 0.009c-0.018 0.107-0.028 0.229-0.028 0.355 0 0.029 0.001 0.059 0.002 0.088l-0-0.004q0 5.379 0 10.731z"></path>
<path d="M27.064 17.385h-15.544c-0.061 0.010-0.131 0.015-0.203 0.015-0.751 0-1.359-0.608-1.359-1.359s0.608-1.359 1.359-1.359c0.028 0 0.056 0.001 0.084 0.003l-0.004-0c0.184 0 0.373 0 0.561 0h15.167c-0.105-0.114-0.167-0.184-0.232-0.25-1.403-1.412-2.784-2.819-4.199-4.213-0.256-0.247-0.415-0.594-0.415-0.977 0-0.751 0.608-1.359 1.359-1.359 0.403 0 0.765 0.176 1.014 0.454l0.001 0.001 6.062 6.062c0.219 0.219 0.438 0.438 0.658 0.658 0.261 0.241 0.423 0.585 0.423 0.967s-0.163 0.726-0.422 0.966l-0.001 0.001q-3.375 3.389-6.759 6.764c-0.245 0.241-0.581 0.39-0.951 0.39-0.749 0-1.356-0.607-1.356-1.356 0-0.378 0.155-0.72 0.405-0.966l0-0q2.087-2.095 4.182-4.178c0.072-0.059 0.152-0.113 0.238-0.158l0.008-0.004z"></path>
</symbol>
<symbol id="icon-people" viewBox="0 0 32 32">
<title>people</title>
<path d="M16.091 28.389h-6.869c-0.049 0.006-0.106 0.009-0.163 0.009-0.834 0-1.509-0.676-1.509-1.509 0-0.056 0.003-0.111 0.009-0.165l-0.001 0.007q0-1.952 0-3.904c-0.011-0.159-0.017-0.346-0.017-0.533 0-4.722 3.828-8.55 8.55-8.55 4.534 0 8.244 3.53 8.532 7.992l0.001 0.025c0.044 0.32 0.069 0.69 0.069 1.066v0.001c0 1.328 0 2.667 0 3.989 0.002 0.031 0.004 0.068 0.004 0.105 0 0.828-0.671 1.499-1.499 1.499-0.037 0-0.074-0.001-0.11-0.004l0.005 0z"></path>
<path d="M26.176 26.363c0-0.117 0-0.229 0-0.341 0-1.205 0.032-2.416 0-3.621-0.097-2.849-1.393-5.377-3.396-7.109l-0.012-0.011-0.187-0.165c0.053-0.039 0.114-0.080 0.176-0.117l0.010-0.006c0.852-0.435 1.859-0.69 2.925-0.69 3.286 0 6.006 2.421 6.473 5.577l0.004 0.036c0.033 0.217 0.054 0.472 0.059 0.73l0 0.006c0 1.408 0 2.816 0 4.219 0 0.008 0 0.017 0 0.027 0 0.819-0.664 1.483-1.483 1.483-0.006 0-0.011-0-0.017-0h0.001c-1.456 0-2.907 0-4.363 0z"></path>
<path d="M9.669 15.125c-2.219 1.859-3.621 4.629-3.627 7.727v0.001c0 1.067 0 2.133 0 3.163 0 0.112 0 0.224 0 0.347-1.6 0-3.168 0.037-4.731 0-0.736-0.048-1.315-0.656-1.315-1.4 0-0.031 0.001-0.062 0.003-0.092l-0 0.004c0-1.424 0-2.853 0-4.267 0.118-3.278 2.633-5.933 5.838-6.27l0.028-0.002c0.201-0.022 0.434-0.034 0.669-0.034 1.024 0 1.993 0.233 2.858 0.649l-0.040-0.017 0.251 0.128s0.027 0.027 0.064 0.064z"></path>
<path d="M6.544 3.733c0.002 0 0.003 0 0.005 0 2.501 0 4.528 2.027 4.528 4.528s-2.027 4.528-4.528 4.528c-2.501 0-4.528-2.027-4.528-4.528 0-0.008 0-0.015 0-0.023v0.001c0.012-2.49 2.032-4.504 4.522-4.507h0z"></path>
<path d="M30.203 8.256c0 0.003 0 0.007 0 0.011 0 2.504-2.030 4.533-4.533 4.533s-4.533-2.030-4.533-4.533c0-2.504 2.030-4.533 4.533-4.533 0.009 0 0.019 0 0.028 0h-0.001c2.486 0.021 4.495 2.035 4.507 4.522v0.001z"></path>
<path d="M20.635 8.272c-0.006 2.496-2.031 4.517-4.528 4.517-2.501 0-4.528-2.027-4.528-4.528s2.027-4.528 4.528-4.528c0.013 0 0.026 0 0.039 0h-0.002c2.486 0.027 4.491 2.049 4.491 4.538 0 0 0 0 0 0v0z"></path>
</symbol>
<symbol id="icon-person" viewBox="0 0 32 32">
<title>person</title>
<path fill="#e4e4e4" style="fill: var(--color1, #e4e4e4)" d="M32 16c0 8.837-7.163 16-16 16s-16-7.163-16-16c0-8.837 7.163-16 16-16s16 7.163 16 16z"></path>
<path fill="#fff" style="fill: var(--color2, #fff)" d="M23.774 22.923c-1.17-1.154-2.665-1.981-4.336-2.33l-0.057-0.010c-0.035-0.010-0.076-0.016-0.118-0.016-0.089 0-0.173 0.026-0.243 0.071l0.002-0.001c-0.778 0.449-1.702 0.733-2.688 0.782l-0.014 0.001c-0.103 0.006-0.223 0.009-0.343 0.009-1.138 0-2.204-0.306-3.121-0.84l0.030 0.016c-0.043-0.025-0.094-0.039-0.148-0.039-0.016 0-0.032 0.001-0.047 0.004l0.002-0c-1.662 0.323-3.109 1.085-4.262 2.158l0.005-0.005c-1.256 1.22-1.974 3.56-2.333 5.836 2.696 2.142 6.149 3.436 9.904 3.436 3.87 0 7.419-1.375 10.185-3.662l-0.027 0.022c-0.057-0.512-0.138-0.965-0.245-1.407l0.016 0.076c-0.351-1.604-1.11-2.994-2.164-4.102l0.003 0.004z"></path>
<path fill="#fff" style="fill: var(--color2, #fff)" d="M16.079 9.091c-0.024-0-0.053-0.001-0.082-0.001-3.059 0-5.538 2.479-5.538 5.538s2.479 5.538 5.538 5.538c3.043 0 5.513-2.455 5.538-5.492v-0.002c0-0.013 0-0.028 0-0.044 0-3.030-2.433-5.491-5.451-5.537l-0.004-0z"></path>
</symbol>
<symbol id="icon-qmark" viewBox="0 0 32 32">
<title>qmark</title>
<path d="M15.432 18.872c-0.132-0.164-0.212-0.374-0.212-0.603 0-0.019 0.001-0.038 0.002-0.056l-0 0.003c-0.001-0.037-0.002-0.081-0.002-0.125 0-0.629 0.148-1.224 0.41-1.752l-0.010 0.023c0.348-0.627 0.731-1.169 1.165-1.666l-0.009 0.011c0.3-0.354 0.583-0.746 0.836-1.159l0.023-0.041c0.175-0.3 0.278-0.659 0.278-1.043 0-0.012-0-0.024-0-0.035l0 0.002c0.001-0.014 0.001-0.030 0.001-0.047 0-0.405-0.19-0.766-0.486-0.998l-0.003-0.002c-0.332-0.237-0.747-0.379-1.195-0.379-0.046 0-0.091 0.001-0.136 0.004l0.006-0c-0.001 0-0.003 0-0.005 0-0.497 0-0.968 0.114-1.387 0.316l0.019-0.008c-0.597 0.293-1.099 0.587-1.578 0.914l0.044-0.028c-0.232 0.151-0.511 0.251-0.811 0.277l-0.007 0c-0.242-0.006-0.454-0.125-0.588-0.306l-0.001-0.002c-0.152-0.195-0.244-0.444-0.244-0.714 0-0.391 0.193-0.738 0.488-0.949l0.004-0.002c0.559-0.475 1.214-0.857 1.93-1.112l0.044-0.014c0.681-0.257 1.469-0.407 2.291-0.409h0.001c0.035-0.001 0.076-0.001 0.117-0.001 0.738 0 1.44 0.151 2.079 0.423l-0.035-0.013c0.6 0.254 1.098 0.65 1.468 1.146l0.007 0.009c0.331 0.458 0.529 1.031 0.529 1.65 0 0.015-0 0.030-0 0.044l0-0.002c0.001 0.023 0.001 0.049 0.001 0.076 0 0.641-0.186 1.239-0.508 1.741l0.008-0.013c-0.444 0.646-0.923 1.211-1.453 1.723l-0.003 0.003c-0.433 0.429-0.835 0.887-1.204 1.371l-0.023 0.032c-0.262 0.362-0.442 0.798-0.505 1.272l-0.002 0.014c-0.029 0.197-0.128 0.366-0.269 0.487l-0.001 0.001c-0.136 0.106-0.308 0.169-0.496 0.169-0.012 0-0.023-0-0.035-0.001l0.002 0c-0.008 0-0.016 0-0.025 0-0.206 0-0.391-0.090-0.518-0.232l-0.001-0.001zM14.963 22.868c-0.259-0.279-0.418-0.654-0.418-1.066s0.159-0.787 0.418-1.067l-0.001 0.001c0.271-0.269 0.644-0.435 1.056-0.435s0.785 0.166 1.056 0.435l-0-0c0.26 0.265 0.421 0.628 0.421 1.028 0 0.013-0 0.026-0 0.039l0-0.002c0 0.011 0 0.024 0 0.037 0 0.402-0.164 0.766-0.428 1.028l-0 0c-0.27 0.265-0.641 0.429-1.051 0.429s-0.78-0.164-1.051-0.429l0 0z"></path>
<path d="M15.998 32c-8.834-0.002-15.994-7.164-15.994-15.998 0-8.836 7.163-15.998 15.998-15.998 8.834 0 15.996 7.16 15.998 15.994v0c-0.009 8.834-7.168 15.993-16.001 16.002h-0.001zM15.998 2.112c-7.667 0-13.882 6.215-13.882 13.882s6.215 13.882 13.882 13.882c7.667 0 13.882-6.215 13.882-13.882v0c-0.011-7.663-6.219-13.873-13.881-13.886h-0.001z"></path>
</symbol>
<symbol id="icon-report" viewBox="0 0 32 32">
<title>report</title>
<path d="M5.714 2.286c0-0.389 0-0.743 0-1.097-0.001-0.014-0.001-0.030-0.001-0.046 0-0.631 0.512-1.143 1.143-1.143 0 0 0.001 0 0.001 0h20.44c0.021-0.001 0.045-0.001 0.069-0.001 0.158 0 0.311 0.017 0.459 0.049l-0.014-0.003c0.457 0.135 0.79 0.536 0.823 1.019l0 0.004c0 0.103 0 0.206 0 0.303q0 13.52 0 27.040c0 0.954-0.423 1.377-1.377 1.377h-0.914c0 0.343 0 0.657 0 0.966 0.011 0.059 0.017 0.128 0.017 0.198 0 0.631-0.512 1.143-1.143 1.143-0.065 0-0.128-0.005-0.19-0.016l0.007 0.001h-20.314c-0.048 0.007-0.104 0.011-0.161 0.011-0.631 0-1.143-0.512-1.143-1.143 0-0.058 0.004-0.116 0.013-0.172l-0.001 0.006q0-13.583 0-27.166c-0.012-0.063-0.019-0.135-0.019-0.209 0-0.631 0.512-1.143 1.143-1.143 0.075 0 0.149 0.007 0.221 0.021l-0.007-0.001zM4.571 3.429v27.503h20.571v-22.931h-3.28c-0.029 0.003-0.062 0.004-0.096 0.004-0.631 0-1.143-0.512-1.143-1.143 0-0.036 0.002-0.071 0.005-0.106l-0 0.004c0-1 0-1.994 0-2.994 0-0.109 0-0.217 0-0.337zM6.857 2.286h0.383q7.103 0 14.177 0c0.008-0 0.018-0.001 0.028-0.001 0.229 0 0.435 0.099 0.577 0.257l0.001 0.001q2.023 2.029 4.063 4.063c0.166 0.15 0.269 0.366 0.269 0.606 0 0.010-0 0.020-0.001 0.030l0-0.001q0 10.48 0 20.966v0.411h1.143v-27.474h-20.64zM21.76 6.857h2.811l-2.783-2.811z"></path>
<path d="M9.143 11.429c0.029-3.134 2.576-5.663 5.714-5.663 3.156 0 5.714 2.558 5.714 5.714s-2.558 5.714-5.714 5.714v0c-3.161-0.023-5.714-2.59-5.714-5.754 0-0.004 0-0.008 0-0.012v0.001zM14.857 11.429v-4.571c-2.455 0.090-4.411 2.102-4.411 4.571 0 2.526 2.048 4.574 4.574 4.574 0.057 0 0.114-0.001 0.171-0.003l-0.008 0c2.37-0.152 4.235-2.111 4.235-4.506 0-0.023-0-0.046-0.001-0.069l0 0.004z"></path>
<path d="M14.903 20.629h7.303c0.028-0.004 0.061-0.007 0.094-0.007 0.246 0 0.458 0.141 0.562 0.346l0.002 0.004c0.030 0.067 0.047 0.145 0.047 0.227 0 0.269-0.186 0.495-0.437 0.556l-0.004 0.001c-0.055 0.007-0.118 0.011-0.183 0.011s-0.128-0.004-0.19-0.011l0.008 0.001h-14.423c-0.041 0.003-0.089 0.004-0.137 0.004s-0.096-0.001-0.144-0.004l0.007 0c-0.298-0.022-0.531-0.268-0.531-0.57 0-0 0-0.001 0-0.001v0c0-0.316 0.256-0.571 0.571-0.571v0c0.537 0 1.080 0 1.617 0z"></path>
<path d="M14.857 25.211h-7.286c-0.423 0-0.669-0.189-0.691-0.526-0.001-0.015-0.002-0.032-0.002-0.050 0-0.292 0.219-0.533 0.502-0.567l0.003-0c0.045-0.003 0.098-0.005 0.151-0.005s0.106 0.002 0.158 0.006l-0.007-0h14.417c0.019-0.001 0.041-0.001 0.063-0.001 0.117 0 0.232 0.013 0.342 0.038l-0.010-0.002c0.237 0.073 0.406 0.29 0.406 0.547 0 0.009-0 0.017-0.001 0.026l0-0.001c-0.027 0.262-0.227 0.47-0.483 0.508l-0.003 0c-0.045 0.003-0.098 0.005-0.151 0.005s-0.106-0.002-0.159-0.005l0.007 0z"></path>
<path d="M14.857 28.646h-7.297c-0.44 0-0.68-0.2-0.686-0.571-0.001-0.012-0.002-0.026-0.002-0.040 0-0.269 0.198-0.492 0.456-0.531l0.003-0c0.055-0.005 0.119-0.008 0.183-0.008s0.128 0.003 0.191 0.008l-0.008-0.001h14.383c0.055-0.005 0.119-0.008 0.183-0.008s0.128 0.003 0.191 0.008l-0.008-0.001c0.263 0.055 0.457 0.285 0.457 0.56 0 0.004-0 0.008-0 0.012v-0.001c-0.021 0.274-0.232 0.493-0.5 0.525l-0.003 0c-0.045 0.003-0.098 0.004-0.151 0.004s-0.106-0.001-0.159-0.004l0.007 0z"></path>
</symbol>
<symbol id="icon-school" viewBox="0 0 32 32">
<title>school</title>
<path d="M15.162 8.813l3.556 3.109q3.632 3.159 7.248 6.319c0.174 0.136 0.285 0.346 0.285 0.582 0 0.013-0 0.026-0.001 0.039l0-0.002q0 5.47 0 10.946c0 0.62-0.208 0.828-0.828 0.828h-7.99v-0.32q0-2.296 0-4.571c0-0.508-0.229-0.762-0.762-0.762h-2.88c-0.554 0-0.777 0.218-0.777 0.767q0 2.265 0 4.536c0 0.107 0 0.213 0 0.35h-8.442c-0.569 0-0.792-0.224-0.792-0.787q0-5.445 0-10.89c-0-0.008-0.001-0.017-0.001-0.026 0-0.148 0.069-0.28 0.178-0.364l0.001-0.001 10.976-9.564zM22.131 20.607q0-0.508 0-1.016s0-0.036 0-0.056c0.002-0.021 0.004-0.045 0.004-0.069 0-0.348-0.282-0.63-0.63-0.63-0.023 0-0.045 0.001-0.068 0.004l0.003-0q-1.087 0-2.174 0c-0.019-0.002-0.042-0.003-0.065-0.003-0.348 0-0.63 0.282-0.63 0.63 0 0.024 0.001 0.049 0.004 0.072l-0-0.003q0 1.072 0 2.143c-0.002 0.018-0.003 0.040-0.003 0.061 0 0.356 0.289 0.645 0.645 0.645 0.030 0 0.059-0.002 0.088-0.006l-0.003 0h2.143c0.022 0.003 0.048 0.004 0.074 0.004 0.348 0 0.63-0.282 0.63-0.63 0-0.021-0.001-0.042-0.003-0.063l0 0.003c-0.010-0.361-0.015-0.726-0.015-1.087zM13.247 20.607c0 0.371 0 0.742 0 1.112-0.001 0.015-0.002 0.033-0.002 0.052 0 0.345 0.28 0.625 0.625 0.625 0.011 0 0.023-0 0.034-0.001l-0.002 0q1.112 0 2.225 0c0.014 0.001 0.031 0.002 0.048 0.002 0.339 0 0.615-0.275 0.615-0.615 0-0.019-0.001-0.037-0.002-0.055l0 0.002q0-1.112 0-2.225c0.002-0.017 0.003-0.037 0.003-0.057 0-0.331-0.268-0.599-0.599-0.599-0.015 0-0.030 0.001-0.045 0.002l0.002-0q-1.128 0-2.255 0c-0.012-0.001-0.025-0.001-0.039-0.001-0.339 0-0.615 0.275-0.615 0.615 0 0.022 0.001 0.044 0.003 0.065l-0-0.003c0 0.34 0.005 0.706 0.005 1.067zM11.459 20.607c0-0.381 0-0.762 0-1.143 0.001-0.012 0.001-0.026 0.001-0.041 0-0.328-0.266-0.594-0.594-0.594-0.002 0-0.005 0-0.007 0h0q-1.168 0-2.336 0c-0.005-0-0.011-0-0.017-0-0.325 0-0.589 0.264-0.589 0.589 0 0.014 0 0.029 0.002 0.043l-0-0.002q0 1.128 0 2.255c-0.001 0.014-0.002 0.030-0.002 0.046 0 0.339 0.275 0.615 0.615 0.615 0.010 0 0.019-0 0.028-0.001l-0.001 0q1.128 0 2.255 0c0.008 0 0.017 0.001 0.026 0.001 0.342 0 0.62-0.277 0.62-0.62 0-0.013-0-0.025-0.001-0.038l0 0.002c0.005-0.386 0-0.736 0-1.107z"></path>
<path d="M15.142 6.984l-2.443 2.113-10.56 9.189c-0.224 0.217-0.529 0.351-0.866 0.351-0.16 0-0.312-0.030-0.453-0.085l0.008 0.003c-0.443-0.149-0.766-0.539-0.812-1.011l-0-0.005c-0.008-0.054-0.013-0.116-0.013-0.179 0-0.418 0.204-0.788 0.517-1.018l0.004-0.002 5.587-4.841c2.626-2.306 5.293-4.592 7.929-6.928 0.271-0.31 0.666-0.504 1.107-0.504s0.837 0.195 1.106 0.503l0.001 0.002q6.756 5.907 13.552 11.774c0.302 0.226 0.495 0.582 0.495 0.983 0 0.145-0.025 0.283-0.071 0.412l0.003-0.009c-0.146 0.488-0.579 0.843-1.099 0.868l-0.003 0c-0.038 0.004-0.082 0.006-0.126 0.006-0.346 0-0.66-0.138-0.89-0.362l0 0-5.989-5.211-6.73-5.836z"></path>
<path d="M31.929 9.046c-1.046-0.97-2.26-0.98-3.525-0.823-0.196 0.040-0.422 0.064-0.653 0.064-0.76 0-1.462-0.251-2.027-0.674l0.009 0.006c-0.203-0.131-0.336-0.356-0.336-0.613 0-0.011 0-0.023 0.001-0.034l-0 0.002c0-1.595 0-3.185 0-4.8 0.046 0 0.081 0 0.102 0.036 0.602 0.547 1.405 0.882 2.286 0.882 0.192 0 0.38-0.016 0.563-0.046l-0.020 0.003c0.352-0.032 0.762-0.051 1.177-0.051 0.262 0 0.521 0.007 0.779 0.022l-0.036-0.002c0.61 0.064 1.148 0.335 1.549 0.741l0 0c0.067 0.063 0.112 0.15 0.122 0.247l0 0.002c0.010 1.666 0.010 3.332 0.010 5.039z"></path>
<path d="M24.152 9.854c-0.437-0.386-0.808-0.742-1.214-1.056-0.238-0.174-0.39-0.451-0.39-0.765 0-0.031 0.002-0.062 0.004-0.092l-0 0.004c0-1.808 0-3.622 0-5.435 0-0.001 0-0.001 0-0.002 0-0.17 0.028-0.334 0.079-0.487l-0.003 0.011c0.109-0.305 0.396-0.52 0.733-0.52 0.048 0 0.095 0.004 0.14 0.013l-0.005-0.001c0.377 0.073 0.657 0.401 0.657 0.793 0 0.018-0.001 0.035-0.002 0.052l0-0.002q0 2.514 0 5.024c0 0.803 0 1.59 0 2.463z"></path>
</symbol>
<symbol id="icon-slash" viewBox="0 0 32 32">
<title>slash</title>
<path d="M24.141 7.859v0c-0.348-0.352-0.831-0.571-1.366-0.571s-1.017 0.218-1.366 0.57l-0 0-4.054 4.070-9.497 9.501c-0.349 0.349-0.566 0.832-0.566 1.366 0 1.067 0.865 1.931 1.931 1.931 0.533 0 1.016-0.216 1.366-0.566v0l4.054-4.089 9.497-9.501c0.346-0.347 0.561-0.827 0.561-1.356s-0.214-1.009-0.561-1.356l0 0z"></path>
<path d="M15.998 31.996c-8.835 0-15.998-7.163-15.998-15.998s7.163-15.998 15.998-15.998c8.835 0 15.998 7.163 15.998 15.998v0c-0.011 8.831-7.167 15.987-15.997 15.998h-0.001zM15.998 1.533c-7.987 0.002-14.461 6.477-14.461 14.465 0 7.989 6.476 14.465 14.465 14.465s14.465-6.476 14.465-14.465v0c-0.009-7.986-6.482-14.458-14.468-14.465h-0.001z"></path>
</symbol>
<symbol id="icon-tick" viewBox="0 0 32 32">
<title>tick</title>
<path d="M25.488 9.216c-0.348-0.352-0.831-0.571-1.366-0.571s-1.017 0.218-1.366 0.57l-0 0-4.054 4.070-5.463 5.463-4.015-4.081c-0.35-0.35-0.832-0.566-1.366-0.566-1.067 0-1.931 0.865-1.931 1.931 0 0.533 0.216 1.016 0.566 1.366v0 0l5.424 5.389c0.348 0.352 0.831 0.571 1.366 0.571s1.017-0.218 1.366-0.57l0-0 10.84-10.859c0.346-0.347 0.561-0.827 0.561-1.356s-0.214-1.009-0.561-1.356l0 0z"></path>
<path d="M15.998 31.996c-8.835 0-15.998-7.163-15.998-15.998s7.163-15.998 15.998-15.998c8.835 0 15.998 7.163 15.998 15.998v0c-0.011 8.831-7.167 15.987-15.997 15.998h-0.001zM15.998 1.533c-7.987 0.002-14.461 6.477-14.461 14.465 0 7.989 6.476 14.465 14.465 14.465s14.465-6.476 14.465-14.465v0c-0.009-7.986-6.482-14.458-14.468-14.465h-0.001z"></path>
</symbol>
<symbol id="icon-upload" viewBox="0 0 32 32">
<title>upload</title>
<path d="M0 15.972c0.013-8.826 7.172-15.976 16-15.976 8.837 0 16 7.163 16 16s-7.163 16-16 16c-0.010 0-0.019 0-0.029-0h0.002c-8.827-0.027-15.972-7.189-15.972-16.020 0-0.001 0-0.003 0-0.004v0zM18.15 12.823c1.039 0 2.028 0 3.012 0 0.184-0.015 0.343-0.114 0.44-0.258l0.001-0.002c0.063-0.13-0.020-0.346-0.067-0.516-0.024-0.079-0.11-0.134-0.173-0.201l-4.878-5.413c-0.394-0.445-0.583-0.445-0.996 0l-2.862 3.15-2.079 2.303c-0.161 0.181-0.303 0.362-0.177 0.622s0.343 0.28 0.591 0.276c0.457 0 0.913 0 1.366 0h1.52c0 0.224 0 0.394 0 0.598q0 2.051 0 4.102c0 0.437 0.193 0.634 0.626 0.638q1.516 0 3.035 0c0.027 0.005 0.058 0.007 0.089 0.007 0.304 0 0.551-0.247 0.551-0.551 0-0.030-0.002-0.060-0.007-0.089l0 0.003c0-0.543 0-1.091 0-1.634 0.008-0.984 0.008-1.996 0.008-3.047zM10.669 21.331c0-0.74 0-1.449 0-2.157 0-0.594-0.481-1.075-1.075-1.075s-1.075 0.481-1.075 1.075v0q-0.024 1.65 0 3.303c0.007 0.573 0.47 1.035 1.043 1.039h0c0.343 0 0.689 0 1.035 0h11.705c0.035 0.004 0.076 0.006 0.117 0.006 0.591 0 1.071-0.479 1.071-1.071 0-0.041-0.002-0.082-0.007-0.122l0 0.005c0-1.035 0-2.067 0-3.102 0-0.596-0.483-1.079-1.079-1.079s-1.079 0.483-1.079 1.079v0c0 0.421 0 0.846 0 1.268 0 0.283 0 0.567 0 0.854z"></path>
</symbol>
<symbol id="icon-x-circle" viewBox="0 0 32 32">
<path d="M20.072 17.356l-1.342-1.358 1.358-1.358 4.054-4.070c0.349-0.35 0.566-0.832 0.566-1.366 0-1.067-0.865-1.931-1.931-1.931-0.533 0-1.016 0.216-1.366 0.566v0l-4.054 4.089-1.358 1.358-5.428-5.428c-0.348-0.352-0.831-0.571-1.366-0.571s-1.017 0.218-1.365 0.57l-0 0c-0.352 0.348-0.571 0.831-0.571 1.366s0.218 1.017 0.57 1.366l0 0 4.089 4.054 1.358 1.354-5.428 5.432c-0.352 0.348-0.571 0.831-0.571 1.366s0.218 1.017 0.57 1.366l0 0c0.348 0.352 0.831 0.571 1.366 0.571s1.017-0.218 1.366-0.57l0-0 4.054-4.089 1.354-1.342 1.358 1.358 4.074 4.054c0.348 0.352 0.831 0.571 1.366 0.571s1.017-0.218 1.366-0.57l0-0c0.352-0.348 0.571-0.831 0.571-1.366s-0.218-1.017-0.57-1.366l-0-0z"></path>
<path d="M15.998 31.996c-8.835 0-15.998-7.163-15.998-15.998s7.163-15.998 15.998-15.998c8.835 0 15.998 7.163 15.998 15.998v0c-0.011 8.831-7.167 15.987-15.997 15.998h-0.001zM15.998 1.533c-7.987 0.002-14.461 6.477-14.461 14.465 0 7.989 6.476 14.465 14.465 14.465s14.465-6.476 14.465-14.465v0c-0.009-7.986-6.482-14.458-14.468-14.465h-0.001z"></path>
</symbol>
<symbol id="icon-x" viewBox="0 0 32 32">
<path d="M20.072 17.356l-1.342-1.358 1.358-1.358 4.054-4.070c0.349-0.35 0.566-0.832 0.566-1.366 0-1.067-0.865-1.931-1.931-1.931-0.533 0-1.016 0.216-1.366 0.566v0l-4.054 4.089-1.358 1.358-5.428-5.428c-0.348-0.352-0.831-0.571-1.366-0.571s-1.017 0.218-1.365 0.57l-0 0c-0.352 0.348-0.571 0.831-0.571 1.366s0.218 1.017 0.57 1.366l0 0 4.089 4.054 1.358 1.354-5.428 5.432c-0.352 0.348-0.571 0.831-0.571 1.366s0.218 1.017 0.57 1.366l0 0c0.348 0.352 0.831 0.571 1.366 0.571s1.017-0.218 1.366-0.57l0-0 4.054-4.089 1.354-1.342 1.358 1.358 4.074 4.054c0.348 0.352 0.831 0.571 1.366 0.571s1.017-0.218 1.366-0.57l0-0c0.352-0.348 0.571-0.831 0.571-1.366s-0.218-1.017-0.57-1.366l-0-0z"></path>
</symbol>
<symbol id="icon-chb-empty" viewBox="0 0 32 32">
<path d="M26.958 0h-21.916c-2.785 0-5.042 2.257-5.042 5.042v0 21.916c0 0.002 0 0.005 0 0.007 0 2.785 2.257 5.042 5.042 5.042h21.916c0.002 0 0.005 0 0.007 0 2.785 0 5.042-2.258 5.042-5.042 0-0.002 0-0.005 0-0.007v0-21.916c0 0 0 0 0 0 0-2.785-2.258-5.042-5.042-5.042-0.002 0-0.005 0-0.007 0h0zM29.688 26.958c0 0.001 0 0.003 0 0.005 0 1.505-1.22 2.725-2.725 2.725-0.002 0-0.003 0-0.005 0h-21.915c-1.504-0.001-2.723-1.221-2.723-2.725 0-0.002 0-0.003 0-0.005v0-21.916c0.001-1.503 1.22-2.722 2.723-2.723h21.916c0.001 0 0.003 0 0.005 0 1.504 0 2.724 1.219 2.725 2.723v0z"></path>
</symbol>
<symbol id="icon-chb-minus" viewBox="0 0 32 32">
<path d="M26.958 0h-21.916c-2.785 0-5.042 2.257-5.042 5.042v0 21.916c0 0.002 0 0.005 0 0.007 0 2.785 2.257 5.042 5.042 5.042h21.916c0.002 0 0.005 0 0.007 0 2.785 0 5.042-2.258 5.042-5.042 0-0.002 0-0.005 0-0.007v0-21.916c0 0 0 0 0 0 0-2.785-2.258-5.042-5.042-5.042-0.002 0-0.005 0-0.007 0h0zM24.497 16.003c0 1.025-0.831 1.855-1.855 1.855v0h-13.283c-1.025 0-1.855-0.831-1.855-1.855v0 0c0-1.025 0.831-1.855 1.855-1.855v0h13.283c1.025 0 1.855 0.831 1.855 1.855v0z"></path>
</symbol>
<symbol id="icon-chb-ticked" viewBox="0 0 32 32">
<path d="M26.958 0h-21.916c-2.785 0-5.042 2.257-5.042 5.042v0 21.916c0 0.002 0 0.005 0 0.007 0 2.785 2.257 5.042 5.042 5.042h21.916c0.002 0 0.005 0 0.007 0 2.785 0 5.042-2.258 5.042-5.042 0-0.002 0-0.005 0-0.007v0-21.916c0 0 0 0 0 0 0-2.785-2.258-5.042-5.042-5.042-0.002 0-0.005 0-0.007 0h0zM29.688 26.958c0 0.001 0 0.003 0 0.005 0 1.505-1.22 2.725-2.725 2.725-0.002 0-0.003 0-0.005 0h-21.915c-1.504-0.001-2.723-1.221-2.723-2.725 0-0.002 0-0.003 0-0.005v0-21.916c0.001-1.503 1.22-2.722 2.723-2.723h21.916c0.001 0 0.003 0 0.005 0 1.504 0 2.724 1.219 2.725 2.723v0z"></path>
<path d="M22.563 10.029l-9.187 9.187-3.943-3.943c-0.336-0.334-0.798-0.54-1.309-0.54-1.025 0-1.857 0.831-1.857 1.857 0 0.514 0.209 0.98 0.547 1.316l5.3 5.302c0.329 0.304 0.771 0.491 1.257 0.491 0.512 0 0.975-0.207 1.31-0.542l-0 0 0.060-0.067 3.873-3.873 2.635-2.623 3.943-3.943c0.335-0.336 0.541-0.799 0.541-1.31 0-1.025-0.831-1.857-1.857-1.857-0.514 0-0.979 0.209-1.315 0.546l-0 0z"></path>
</symbol>
<symbol id="icon-chb-ticked-full" viewBox="0 0 32 32">
<path d="M26.958 0h-21.916c-2.785 0-5.042 2.257-5.042 5.042v0 21.916c0 0.002 0 0.005 0 0.007 0 2.785 2.257 5.042 5.042 5.042h21.916c0.002 0 0.005 0 0.007 0 2.785 0 5.042-2.258 5.042-5.042 0-0.002 0-0.005 0-0.007v0-21.916c0 0 0 0 0 0 0-2.785-2.258-5.042-5.042-5.042-0.002 0-0.005 0-0.007 0h0zM25.188 12.654l-10.497 10.502c-0.336 0.335-0.799 0.542-1.31 0.542-0.486 0-0.928-0.187-1.258-0.492l0.001 0.001-0.063-0.053-5.246-5.249c-0.336-0.336-0.544-0.8-0.544-1.313 0-1.025 0.831-1.856 1.856-1.856 0.512 0 0.976 0.207 1.312 0.543l3.943 3.943 9.187-9.198c0.336-0.335 0.799-0.541 1.31-0.541 1.025 0 1.857 0.831 1.857 1.857 0 0.514-0.209 0.979-0.546 1.315l-0 0z"></path>
</symbol>
</defs>
</svg>
